<svg width="736" height="132" viewBox="0 0 736 132" fill="none" xmlns="http://www.w3.org/2000/svg">
<path d="M0.355547 99L1.05555 96.06L5.25555 94.94C8.89555 94.0067 11.6489 91.8133 13.5155 88.36L56.2155 6.46H67.4155L80.1556 88.08C80.7156 91.5333 82.6756 93.82 86.0356 94.94L89.3956 96.06L88.6956 99H54.5355L55.0955 96.06L57.7555 95.22C61.0222 94.1933 62.4689 91.9533 62.0956 88.5L59.0155 67.36H29.0555L17.9955 88.64C16.5022 91.9067 17.3889 94.0067 20.6555 94.94L24.2955 96.06L23.7355 99H0.355547ZM52.5755 21.86L31.1555 63.3H58.4555L52.5755 21.86ZM97.649 100.12L96.249 98.86L106.889 48.04C107.729 44.3067 106.329 41.6933 102.689 40.2L100.589 39.36L100.869 36.98L125.649 29.56L127.189 30.96L124.109 46.78C128.962 41.6467 133.909 37.54 138.949 34.46C143.989 31.2867 148.702 29.7 153.089 29.7C156.076 29.7 158.502 30.6333 160.369 32.5C162.329 34.2733 163.309 37.0267 163.309 40.76C163.309 42.8133 163.122 44.9133 162.749 47.06C162.376 49.1133 161.909 51.26 161.349 53.5L154.209 82.2C153.836 83.6933 153.509 85 153.229 86.12C153.042 87.1467 152.949 88.0333 152.949 88.78C152.949 90.74 153.742 91.72 155.329 91.72C157.756 91.72 160.836 89.76 164.569 85.84L166.529 87.8C164.196 91.2533 161.162 94.3333 157.429 97.04C153.696 99.6533 149.542 100.96 144.969 100.96C142.076 100.96 139.789 100.26 138.109 98.86C136.429 97.46 135.589 95.5467 135.589 93.12C135.589 91.16 135.822 89.2 136.289 87.24C136.756 85.1867 137.316 82.9933 137.969 80.66L143.429 58.54C144.176 55.74 144.782 53.22 145.249 50.98C145.716 48.74 145.949 46.7333 145.949 44.96C145.949 43.0933 145.529 41.8333 144.689 41.18C143.942 40.4333 142.916 40.06 141.609 40.06C139.369 40.06 136.662 41.04 133.489 43C130.409 44.8667 126.909 47.8533 122.989 51.96L119.209 69.18C118.182 74.1267 117.202 79.0733 116.269 84.02C115.336 88.9667 114.402 93.96 113.469 99L97.649 100.12ZM200.395 100.96C195.635 100.96 191.295 100.027 187.375 98.16C183.455 96.2933 180.328 93.4467 177.995 89.62C175.661 85.7 174.495 80.8 174.495 74.92C174.495 68.9467 175.475 63.2533 177.435 57.84C179.488 52.4267 182.288 47.62 185.835 43.42C189.475 39.1267 193.675 35.7667 198.435 33.34C203.288 30.9133 208.468 29.7 213.975 29.7C221.348 29.7 227.461 31.8467 232.315 36.14C237.168 40.34 239.595 46.8733 239.595 55.74C239.595 61.62 238.568 67.2667 236.515 72.68C234.555 78.0933 231.801 82.9467 228.255 87.24C224.708 91.44 220.555 94.8 215.795 97.32C211.035 99.7467 205.901 100.96 200.395 100.96ZM202.075 97.04C205.061 97.04 207.768 95.78 210.195 93.26C212.621 90.6467 214.721 87.24 216.495 83.04C218.268 78.84 219.621 74.1733 220.555 69.04C221.581 63.8133 222.095 58.6333 222.095 53.5C222.095 46.1267 221.208 40.9933 219.435 38.1C217.755 35.2067 215.561 33.76 212.855 33.76C209.868 33.76 207.068 35.02 204.455 37.54C201.935 39.9667 199.741 43.28 197.875 47.48C196.008 51.68 194.561 56.3467 193.535 61.48C192.508 66.52 191.995 71.6533 191.995 76.88C191.995 84.44 192.928 89.7133 194.795 92.7C196.755 95.5933 199.181 97.04 202.075 97.04ZM260.532 100.96C257.639 100.96 255.259 100.26 253.392 98.86C251.619 97.3667 250.732 95.1733 250.732 92.28C250.732 88.7333 251.292 84.44 252.412 79.4L261.792 36H249.892L250.452 33.06L256.052 32.5C260.812 31.8467 264.732 29.6067 267.812 25.78L278.732 12.62H283.072L279.152 31.8H294.692L293.852 36.28L278.172 36L268.932 80.8C268.559 82.48 268.279 83.9733 268.092 85.28C267.906 86.4933 267.812 87.52 267.812 88.36C267.812 89.2933 268.092 90.04 268.652 90.6C269.212 91.16 269.866 91.44 270.612 91.44C272.572 91.44 275.559 89.4333 279.572 85.42L281.812 87.24C279.479 90.6933 276.492 93.8667 272.852 96.76C269.306 99.56 265.199 100.96 260.532 100.96ZM292.027 99.98L290.907 98.86L303.787 37.26C304.44 33.9933 305 31.0067 305.467 28.3C306.027 25.5 306.634 22.42 307.287 19.06C308.034 15.0467 306.4 12.48 302.387 11.36L300.427 10.66L300.847 8.28L326.467 0.719997L327.727 1.84L318.347 46.08C323.014 41.32 327.96 37.4 333.187 34.32C338.414 31.24 343.22 29.7 347.607 29.7C350.594 29.7 353.02 30.6333 354.887 32.5C356.754 34.2733 357.687 37.0267 357.687 40.76C357.687 42.8133 357.5 44.9133 357.127 47.06C356.754 49.1133 356.287 51.26 355.727 53.5L348.867 81.22C348.494 82.9933 348.12 84.5333 347.747 85.84C347.467 87.0533 347.327 88.0333 347.327 88.78C347.327 90.74 348.12 91.72 349.707 91.72C352.04 91.72 355.214 89.8067 359.227 85.98L361.047 87.8C358.807 91.0667 355.82 94.1 352.087 96.9C348.354 99.6067 344.154 100.96 339.487 100.96C336.5 100.96 334.167 100.26 332.487 98.86C330.9 97.46 330.107 95.5467 330.107 93.12C330.107 91.16 330.34 89.2 330.807 87.24C331.274 85.1867 331.787 82.9933 332.347 80.66L338.507 56.44C339.16 54.0133 339.72 51.7733 340.187 49.72C340.654 47.6667 340.887 45.8933 340.887 44.4C340.887 41.04 339.394 39.36 336.407 39.36C331.647 39.36 325.44 43.0467 317.787 50.42L313.727 69.18C312.514 74.78 311.44 79.9133 310.507 84.58C309.667 89.2467 308.874 94.0533 308.127 99L292.027 99.98ZM392.979 100.96C386.072 100.96 380.426 98.72 376.039 94.24C371.746 89.76 369.599 83.2733 369.599 74.78C369.599 68.9 370.626 63.2533 372.679 57.84C374.732 52.4267 377.532 47.62 381.079 43.42C384.719 39.1267 388.966 35.7667 393.819 33.34C398.672 30.9133 403.899 29.7 409.499 29.7C415.286 29.7 419.672 31.0067 422.659 33.62C425.739 36.2333 427.279 39.7333 427.279 44.12C427.279 49.44 423.732 54.7133 416.639 59.94C409.639 65.0733 399.466 69.0867 386.119 71.98C386.399 78.0467 387.846 82.48 390.459 85.28C393.072 88.08 396.666 89.48 401.239 89.48C405.346 89.48 409.032 88.4067 412.299 86.26C415.566 84.1133 418.319 81.5933 420.559 78.7L422.659 80.24C420.792 83.7867 418.366 87.1467 415.379 90.32C412.486 93.4933 409.172 96.06 405.439 98.02C401.706 99.98 397.552 100.96 392.979 100.96ZM408.099 34.46C405.952 34.46 403.666 35.3933 401.239 37.26C398.812 39.0333 396.479 41.5067 394.239 44.68C392.092 47.76 390.272 51.3533 388.779 55.46C387.286 59.4733 386.399 63.7667 386.119 68.34C396.572 65.26 403.899 61.4333 408.099 56.86C412.392 52.2867 414.539 47.4333 414.539 42.3C414.539 39.5933 413.932 37.6333 412.719 36.42C411.506 35.1133 409.966 34.46 408.099 34.46ZM431.926 100.12L430.526 98.86L441.026 48.18C441.493 45.94 441.353 44.2133 440.606 43C439.86 41.6933 438.553 40.7133 436.686 40.06L434.726 39.36L435.146 36.98L458.386 29.56L460.066 31.1L456.286 53.08C458.34 48.7867 460.673 44.8667 463.286 41.32C465.9 37.7733 468.606 34.9733 471.406 32.92C474.3 30.7733 477.146 29.7 479.946 29.7C482.746 29.7 484.986 30.4467 486.666 31.94C488.44 33.4333 489.326 35.3933 489.326 37.82C489.326 40.4333 488.58 42.5333 487.086 44.12C485.593 45.7067 483.586 46.5 481.066 46.5C477.146 46.5 473.506 44.54 470.146 40.62C466.786 43.3267 463.893 46.6867 461.466 50.7C459.04 54.62 456.753 58.8667 454.606 63.44L453.486 69.18C452.553 74.1267 451.573 79.0733 450.546 84.02C449.613 88.9667 448.68 93.96 447.746 99L431.926 100.12ZM517.277 131.34C514.104 131.34 511.444 130.5 509.297 128.82C507.057 127.14 505.937 124.853 505.937 121.96C505.937 119.533 506.777 117.527 508.457 115.94C510.137 114.447 512.237 113.7 514.757 113.7C516.157 113.7 517.51 113.933 518.817 114.4C520.124 114.867 521.477 115.66 522.877 116.78C524.744 118.367 526.564 119.347 528.337 119.72C530.11 120.093 531.977 119.533 533.937 118.04C535.244 117.013 536.504 115.94 537.717 114.82C538.93 113.7 540.19 112.487 541.497 111.18C542.057 110.62 542.617 110.013 543.177 109.36C541.964 99.7467 540.657 90.5533 539.257 81.78C537.95 73.0067 536.55 63.72 535.057 53.92C534.59 50.1867 534.124 47.4333 533.657 45.66C533.284 43.8867 532.817 42.72 532.257 42.16C531.697 41.6 531.044 41.32 530.297 41.32C529.364 41.32 528.337 41.74 527.217 42.58C526.097 43.42 524.79 44.9133 523.297 47.06L521.197 44.82C527.357 34.74 533.797 29.7 540.517 29.7C543.97 29.7 546.444 30.8667 547.937 33.2C549.524 35.5333 550.55 39.2667 551.017 44.4C551.95 53.2667 552.79 61.62 553.537 69.46C554.284 77.3 555.03 85.3733 555.777 93.68C559.137 85.9333 561.984 78.28 564.317 70.72C566.744 63.16 569.077 54.76 571.317 45.52C572.81 39.1733 574.444 34.88 576.217 32.64C578.084 30.4 580.464 29.28 583.357 29.28C585.317 29.28 587.044 29.8867 588.537 31.1C590.124 32.3133 590.917 33.9933 590.917 36.14C590.917 38.38 590.497 40.48 589.657 42.44C588.817 44.4 587.604 46.8733 586.017 49.86C584.524 52.66 582.89 55.6467 581.117 58.82C579.344 61.9933 577.244 65.5867 574.817 69.6C572.204 73.8 569.404 78.3267 566.417 83.18C563.524 88.0333 560.117 93.2133 556.197 98.72C554.144 101.613 551.904 104.6 549.477 107.68C547.144 110.76 544.25 114.12 540.797 117.76C536.877 121.867 532.957 125.133 529.037 127.56C525.21 130.08 521.29 131.34 517.277 131.34ZM619.028 100.96C614.268 100.96 609.928 100.027 606.008 98.16C602.088 96.2933 598.961 93.4467 596.628 89.62C594.294 85.7 593.128 80.8 593.128 74.92C593.128 68.9467 594.108 63.2533 596.068 57.84C598.121 52.4267 600.921 47.62 604.468 43.42C608.108 39.1267 612.308 35.7667 617.068 33.34C621.921 30.9133 627.101 29.7 632.608 29.7C639.981 29.7 646.094 31.8467 650.948 36.14C655.801 40.34 658.228 46.8733 658.228 55.74C658.228 61.62 657.201 67.2667 655.148 72.68C653.188 78.0933 650.434 82.9467 646.888 87.24C643.341 91.44 639.188 94.8 634.428 97.32C629.668 99.7467 624.534 100.96 619.028 100.96ZM620.708 97.04C623.694 97.04 626.401 95.78 628.828 93.26C631.254 90.6467 633.354 87.24 635.128 83.04C636.901 78.84 638.254 74.1733 639.188 69.04C640.214 63.8133 640.728 58.6333 640.728 53.5C640.728 46.1267 639.841 40.9933 638.068 38.1C636.388 35.2067 634.194 33.76 631.488 33.76C628.501 33.76 625.701 35.02 623.088 37.54C620.568 39.9667 618.374 43.28 616.508 47.48C614.641 51.68 613.194 56.3467 612.168 61.48C611.141 66.52 610.628 71.6533 610.628 76.88C610.628 84.44 611.561 89.7133 613.428 92.7C615.388 95.5933 617.814 97.04 620.708 97.04ZM677.905 100.96C674.825 100.96 672.165 100.073 669.925 98.3C667.685 96.4333 666.565 93.5867 666.565 89.76C666.565 87.6133 666.799 85.2333 667.265 82.62C667.732 80.0067 668.245 77.44 668.805 74.92L674.825 48.18C675.665 44.3533 674.312 41.74 670.765 40.34L668.385 39.36L668.665 36.84L693.865 29.56L695.545 30.96L685.885 72.96C685.325 75.2933 684.859 77.3933 684.485 79.26C684.112 81.1267 683.925 82.8533 683.925 84.44C683.925 86.4933 684.392 87.9867 685.325 88.92C686.259 89.76 687.472 90.18 688.965 90.18C691.205 90.18 693.632 89.4333 696.245 87.94C698.952 86.3533 702.172 83.88 705.905 80.52L706.045 79.82L710.805 57.28C711.552 53.4533 712.299 49.6733 713.045 45.94C713.792 42.1133 714.492 38.2867 715.145 34.46L731.525 29.56L733.345 30.96L722.425 80.94C722.145 82.5267 721.865 83.9733 721.585 85.28C721.399 86.5867 721.305 87.66 721.305 88.5C721.305 89.4333 721.585 90.18 722.145 90.74C722.705 91.2067 723.312 91.44 723.965 91.44C725.272 91.44 726.579 90.9733 727.885 90.04C729.285 89.0133 731.012 87.52 733.065 85.56L735.165 87.66C732.832 90.9267 729.892 93.96 726.345 96.76C722.892 99.56 718.925 100.96 714.445 100.96C711.739 100.96 709.405 100.027 707.445 98.16C705.579 96.2933 704.645 93.5867 704.645 90.04C704.645 88.64 704.739 87.1467 704.925 85.56C700.072 90.4133 695.359 94.1933 690.785 96.9C686.305 99.6067 682.012 100.96 677.905 100.96Z" fill="url(#paint0_linear_755_185)"/>
<defs>
<linearGradient id="paint0_linear_755_185" x1="26.9766" y1="50" x2="748.559" y2="50" gradientUnits="userSpaceOnUse">
<stop stop-color="#89C8EC"/>
<stop offset="0.500072" stop-color="#B28CD9"/>
<stop offset="1" stop-color="#EF95A6"/>
</linearGradient>
</defs>
</svg>
