<svg width="694" height="134" viewBox="0 0 694 134" fill="none" xmlns="http://www.w3.org/2000/svg">
<path d="M54.417 2.19999C68.277 2.19999 83.397 10.84 94.017 19.12L88.617 37.84H87.357C77.097 13.72 63.957 4.54 49.737 4.54C31.917 4.54 21.657 14.62 20.577 25.42C17.157 61.42 94.377 49.54 94.377 94.54C94.377 115.96 75.117 131.08 49.557 131.08C28.137 131.08 14.817 123.88 0.776953 113.26L6.17695 92.74H7.43695C16.617 111.1 33.357 127.48 56.937 127.48C72.237 127.48 85.017 117.58 86.457 106.24C91.137 67.9 13.737 80.14 13.737 34.96C13.737 20.38 25.437 2.19999 54.417 2.19999ZM155.771 43.42C179.891 43.42 200.771 58.54 200.771 83.38C200.771 112.18 176.111 131.08 151.991 131.08C127.691 131.08 106.991 116.32 106.991 91.12C106.991 61.42 131.651 43.42 155.771 43.42ZM165.851 127.84C186.371 121.9 191.951 99.4 185.651 77.62C179.351 56.02 162.431 40.72 141.911 46.66C121.391 52.6 115.811 75.1 122.111 96.88C128.411 118.48 145.331 133.96 165.851 127.84ZM297.219 128.74C297.219 129.1 297.219 130 297.219 130H278.859V86.26C276.519 106.6 270.399 131.08 246.999 131.08C230.439 131.08 217.299 120.64 217.299 99.4V57.28C217.299 50.98 216.759 49.18 213.339 48.64C213.339 48.28 213.339 47.38 213.339 47.38L230.259 43.42H231.519V102.1C231.519 117.76 239.619 130.72 255.099 127.84C275.259 123.88 278.859 86.26 278.859 71.14V57.28C278.859 50.98 278.319 49.18 274.899 48.64C274.899 48.28 274.899 47.38 274.899 47.38L291.819 43.42H293.079V118.12C293.079 124.42 294.339 127.12 297.219 128.74ZM328.023 118.12C328.023 124.42 329.283 127.12 331.983 128.74C331.983 129.1 331.983 130 331.983 130H309.843C309.843 130 309.843 129.1 309.843 128.74C312.543 127.12 313.803 124.42 313.803 118.12V14.08C313.803 7.78 313.263 5.98 309.843 5.43999C309.843 5.08 309.843 3.99999 309.843 3.99999L326.763 0.219997H328.023V118.12ZM393.427 43.42C417.547 43.42 438.427 58.54 438.427 83.38C438.427 112.18 413.767 131.08 389.647 131.08C365.347 131.08 344.647 116.32 344.647 91.12C344.647 61.42 369.307 43.42 393.427 43.42ZM403.507 127.84C424.027 121.9 429.607 99.4 423.307 77.62C417.007 56.02 400.087 40.72 379.567 46.66C359.047 52.6 353.467 75.1 359.767 96.88C366.067 118.48 382.987 133.96 403.507 127.84ZM499.775 43.42C523.895 43.42 544.775 58.54 544.775 83.38C544.775 112.18 520.115 131.08 495.995 131.08C471.695 131.08 450.995 116.32 450.995 91.12C450.995 61.42 475.655 43.42 499.775 43.42ZM509.855 127.84C530.375 121.9 535.955 99.4 529.655 77.62C523.355 56.02 506.435 40.72 485.915 46.66C465.395 52.6 459.815 75.1 466.115 96.88C472.415 118.48 489.335 133.96 509.855 127.84ZM688.923 118.12C689.643 124.6 691.263 127.12 693.963 128.74C693.963 129.1 693.963 130 693.963 130H671.823C671.823 130 671.823 129.1 671.823 128.74C674.523 127.12 675.423 124.06 674.883 118.12C674.163 112.18 671.643 81.76 670.743 72.4C669.303 58.9 664.083 43.6 650.043 46.66C633.483 50.26 631.323 78.16 631.143 97.06V118.12C631.143 124.42 632.403 127.12 635.103 128.74C635.103 129.1 635.103 130 635.103 130H612.963C612.963 130 612.963 129.1 612.963 128.74C615.663 127.12 616.923 124.42 616.923 118.12V72.4C616.923 58.72 610.623 43.96 596.583 46.66C576.423 50.44 575.523 88.06 575.523 103.36V118.12C575.523 124.42 576.963 127.12 579.663 128.74C579.663 129.1 579.663 130 579.663 130H557.343C557.343 130 557.343 129.1 557.343 128.74C560.043 127.12 561.483 124.42 561.483 118.12V57.28C561.483 50.98 560.943 49.18 557.343 48.64C557.343 48.28 557.343 47.38 557.343 47.38L574.263 43.42H575.523V83.38C577.503 64.3 582.903 43.42 604.503 43.42C618.363 43.42 630.243 55.3 630.963 75.1L631.143 77.08C633.303 59.62 639.963 43.42 658.143 43.42C672.363 43.42 682.443 54.04 684.603 75.1C686.583 92.56 688.203 111.46 688.923 118.12Z" fill="#181924"/>
</svg>
